<?xml version="1.0" encoding="utf-8"?>
<svg width="406" height="58" fill="none" xmlns="http://www.w3.org/2000/svg">
  <defs/>
  <path d="M 35.147 13.514 L 25.806 2.5 L -0.032 57.417 L 13.442 57.417 L 35.147 13.514 Z" style="fill: rgb(1, 17, 58);"/>
  <path d="M 39.389 1.584 L 58.251 57.417 L 44.777 57.417 L 25.915 1.584 L 39.39 1.584 L 39.389 1.584 Z" fill="#FFC56E" style=""/>
  <path d="M 37.822 35.39 L 23.561 36.46 L 20.187 44.28 L 40.232 44.28 L 37.822 35.39 Z" fill="#FFC56E" style=""/>
  <text style="fill: rgb(1, 12, 56); font-family: Arial, sans-serif; font-size: 46px; white-space: pre;" x="49.362" y="56.186" transform="matrix(1.133993, 0, 0, 1.007007, 0.004288, -0.005058)">lessandro</text>
  <text style="fill: rgb(1, 12, 56); font-family: Arial, sans-serif; font-size: 46px; white-space: pre;" x="286.299" y="56.187" transform="matrix(1.133993, 0, 0, 1.007007, 0.004288, -0.005058)">olta</text>
  <path d="M 304.422 44.944 L 313.565 56.087 L 340.376 1.539 L 326.904 1.35 L 304.422 44.944 Z" style="fill: rgb(1, 17, 58); transform-origin: 284.214px 28.552px;"/>
  <path d="M 299.966 56.812 L 282.099 0.721 L 295.571 0.91 L 313.439 57.001 L 299.965 56.812 L 299.966 56.812 Z" fill="#FFC56E" style="transform-origin: 262.581px 28.665px;"/>
</svg>