<?xml version="1.0" standalone="no"?>
<!DOCTYPE svg PUBLIC "-//W3C//DTD SVG 20010904//EN"
 "http://www.w3.org/TR/2001/REC-SVG-20010904/DTD/svg10.dtd">
<svg version="1.0" xmlns="http://www.w3.org/2000/svg"
 width="162.000000pt" height="162.000000pt" viewBox="0 0 162.000000 162.000000"
 preserveAspectRatio="xMidYMid meet">
<metadata>
Created by potrace 1.14, written by Peter Selinger 2001-2017
</metadata>
<g transform="translate(0.000000,162.000000) scale(0.100000,-0.100000)"
fill="#000000" stroke="none">
<path d="M768 1585 c-2 -2 -30 -6 -63 -9 -94 -10 -247 -58 -285 -90 -8 -7 -22
-15 -31 -18 -32 -12 -165 -128 -200 -175 -63 -85 -79 -110 -72 -117 3 -3 2 -6
-4 -6 -11 0 -61 -126 -68 -170 -3 -14 -9 -42 -14 -63 -13 -56 -6 -221 14 -297
19 -75 64 -180 76 -180 5 0 8 -3 8 -7 -3 -21 2 -33 13 -27 6 4 8 3 4 -4 -7
-11 69 -107 126 -158 92 -83 194 -138 321 -175 102 -29 276 -33 377 -8 41 11
84 21 95 24 11 3 21 9 23 15 2 6 8 8 13 4 14 -8 147 69 199 115 25 22 48 41
53 41 4 0 7 6 7 14 0 8 8 17 18 21 34 11 155 216 168 285 0 3 4 13 9 23 4 10
5 21 1 24 -3 3 0 13 6 21 19 23 15 261 -5 342 -14 54 -20 70 -29 70 -5 0 -7 4
-3 9 7 12 -25 81 -37 81 -5 0 -7 4 -3 9 3 5 0 16 -7 23 -7 7 -20 25 -28 39
-25 44 -103 129 -112 123 -5 -3 -7 -2 -6 3 3 10 -50 58 -94 86 -101 63 -227
111 -320 122 -83 9 -146 13 -150 10z"/>
</g>
</svg>
